# File created by Blade
# Date/Time:  Wed Jan 21 17:10:37 2015
# Frame Rate: 120.000 fps
#------------------------------------------------------
:FULLY-SPECIFIED
:DEGREES
1419
root 18.477722 35.476208 -23.593648 -179.188854 1.071148 -178.190907
Spine -10.650414 -0.093673 1.456140
Head 7.260663 -0.899189 0.029415
LeftShoulder -15.262270 -31.783846 20.258969
LeftArm 0.757012 1.394791 -6.013363
LeftForeArm 13.191680 -0.000000 -3.376878
LeftHand -7.444804 -0.000000 -6.347683
LeftHandThumb1 -26.253704 0.000000 33.147579
RightShoulder -14.232715 -4.901522 -8.555548
RightArm 5.830387 42.140981 14.282903
RightForeArm -39.202645 -0.000000 4.068666
RightHand -4.797360 -0.000000 12.398236
RightHandThumb1 -24.326973 -0.000000 -32.862282
LeftUpLeg 9.671875 10.358874 4.333674
LeftLeg -5.937911 -0.000000 0.000000
LeftFoot -20.470858 25.979726 -13.300764
LeftToeBase 24.187484 -0.000000 -0.000000
RightUpLeg 5.897645 -8.068884 -0.440437
RightLeg -0.999772 -0.000000 0.000000
RightFoot -21.280222 -22.532827 15.709496
RightToeBase 24.922530 -0.000000 -0.000000
1420
root 18.469987 35.474410 -23.606552 -179.258549 1.030793 -178.219530
Spine -10.600283 -0.090458 1.417795
Head 7.362277 -0.848398 -0.095701
LeftShoulder -15.277809 -31.616820 20.184022
LeftArm 0.852990 1.496922 -6.092179
LeftForeArm 12.653999 -0.000000 -3.339133
LeftHand -7.542583 -0.000000 -6.296616
LeftHandThumb1 -26.253704 0.000000 33.147579
RightShoulder -14.208559 -4.979906 -8.614541
RightArm 5.852894 42.292597 14.394904
RightForeArm -39.198193 0.000000 4.067006
RightHand -4.860214 -0.000000 12.376362
RightHandThumb1 -24.326973 -0.000000 -32.862282
LeftUpLeg 9.722653 10.325716 4.304097
LeftLeg -5.882269 -0.000000 0.000000
LeftFoot -20.520230 25.989681 -13.313137
LeftToeBase 24.136827 -0.000000 -0.000000
RightUpLeg 6.033380 -8.128562 -0.506449
RightLeg -1.069339 -0.000000 0.000000
RightFoot -21.273763 -22.478814 15.740132
RightToeBase 24.938161 -0.000000 -0.000000
1421
root 18.462791 35.473804 -23.619655 -179.332693 1.001269 -178.255221
Spine -10.542995 -0.058369 1.362630
Head 7.478041 -0.817189 -0.239888
LeftShoulder -15.279665 -31.494529 20.127780
LeftArm 0.952795 1.664114 -6.169671
LeftForeArm 12.150995 -0.000000 -3.290034
LeftHand -7.542967 0.000000 -6.318953
LeftHandThumb1 -26.253704 0.000000 33.147579
RightShoulder -14.206524 -5.042684 -8.633084
RightArm 5.887957 42.394350 14.436151
RightForeArm -39.135217 0.000000 4.053423
RightHand -4.899903 -0.000000 12.330513
RightHandThumb1 -24.326973 -0.000000 -32.862282
LeftUpLeg 9.772351 10.333368 4.272504
LeftLeg -5.805679 -0.000000 0.000000
LeftFoot -20.550748 25.994158 -13.232908
LeftToeBase 24.321064 -0.000000 -0.000000
RightUpLeg 6.171828 -8.146749 -0.575181
RightLeg -1.138808 -0.000000 0.000000
RightFoot -21.262944 -22.436171 15.797845
RightToeBase 24.937333 -0.000000 -0.000000
1422
root 18.457628 35.472639 -23.632069 -179.389073 0.969837 -178.284106
Spine -10.504277 -0.027013 1.308432
Head 7.612541 -0.738389 -0.425060
LeftShoulder -15.294812 -31.375735 20.101998
LeftArm 1.068742 1.863816 -6.252272
LeftForeArm 11.716095 -0.000000 -3.236135
LeftHand -7.477182 -0.000000 -6.433371
LeftHandThumb1 -26.253704 0.000000 33.147579
RightShoulder -14.209559 -5.132254 -8.654538
RightArm 5.921961 42.543275 14.484521
RightForeArm -39.144536 0.000000 4.130809
RightHand -4.986750 -0.000000 12.290417
RightHandThumb1 -24.326973 -0.000000 -32.862282
LeftUpLeg 9.806926 10.348974 4.241421
LeftLeg -5.745346 -0.000000 0.000000
LeftFoot -20.585320 25.962551 -13.308899
LeftToeBase 24.154900 -0.000000 -0.000000
RightUpLeg 6.280238 -8.181119 -0.631402
RightLeg -1.185923 -0.000000 0.000000
RightFoot -21.278005 -22.404189 15.843917
RightToeBase 24.918918 -0.000000 -0.000000
1423
root 18.455567 35.471631 -23.648174 -179.449219 0.982342 -178.305782
Spine -10.477542 0.047866 1.252563
Head 7.756866 -0.655616 -0.510805
LeftShoulder -15.297881 -31.273741 20.106837
LeftArm 1.170564 2.125432 -6.343804
LeftForeArm 11.388309 0.000000 -3.163157
LeftHand -7.462869 -0.000000 -6.525889
LeftHandThumb1 -26.253704 0.000000 33.147579
RightShoulder -14.198052 -5.197927 -8.683081
RightArm 5.914518 42.482207 14.487557
RightForeArm -39.198853 -0.000000 4.223968
RightHand -5.077299 -0.000000 12.235801
RightHandThumb1 -24.326973 -0.000000 -32.862282
LeftUpLeg 9.881438 10.325215 4.223218
LeftLeg -5.718855 -0.000000 0.000000
LeftFoot -20.638006 25.981988 -13.374143
LeftToeBase 24.155752 -0.000000 -0.000000
RightUpLeg 6.403066 -8.157274 -0.672357
RightLeg -1.257199 -0.000000 0.000000
RightFoot -21.276347 -22.402419 15.870988
RightToeBase 24.901161 -0.000000 -0.000000
1424
root 18.452447 35.470412 -23.663476 -179.496124 0.926332 -178.324111
Spine -10.465528 0.065361 1.215371
Head 7.894874 -0.672075 -0.604068
LeftShoulder -15.300048 -31.158501 20.099637
LeftArm 1.297425 2.346998 -6.434416
LeftForeArm 11.178809 -0.000000 -3.107701
LeftHand -7.450573 -0.000000 -6.534207
LeftHandThumb1 -26.253704 0.000000 33.147579
RightShoulder -14.194779 -5.239294 -8.732124
RightArm 5.905173 42.352906 14.456468
RightForeArm -39.112433 -0.000000 4.304509
RightHand -5.139122 -0.000000 12.136531
RightHandThumb1 -24.326973 -0.000000 -32.862282
LeftUpLeg 9.926100 10.303800 4.203273
LeftLeg -5.694103 -0.000000 0.000000
LeftFoot -20.663168 26.004117 -13.376056
LeftToeBase 24.152299 -0.000000 -0.000000
RightUpLeg 6.525695 -8.195344 -0.711482
RightLeg -1.335745 -0.000000 0.000000
RightFoot -21.269277 -22.390842 15.901139
RightToeBase 24.878919 -0.000000 -0.000000
1425
root 18.448249 35.469568 -23.673710 -179.525256 0.933730 -178.329981
Spine -10.467988 0.131832 1.213566
Head 8.050083 -0.558507 -0.750565
LeftShoulder -15.291645 -31.080529 20.080858
LeftArm 1.387258 2.537944 -6.500952
LeftForeArm 11.062733 0.000000 -3.026911
LeftHand -7.446244 0.000000 -6.541789
LeftHandThumb1 -26.253704 0.000000 33.147579
RightShoulder -14.152273 -5.311723 -8.798576
RightArm 5.907235 42.178392 14.415547
RightForeArm -39.096811 0.000000 4.336915
RightHand -5.176476 0.000000 11.879042
RightHandThumb1 -24.326973 -0.000000 -32.862282
LeftUpLeg 9.959545 10.317455 4.189375
LeftLeg -5.675596 -0.000000 0.000000
LeftFoot -20.682085 26.037356 -13.362555
LeftToeBase 24.083428 -0.000000 -0.000000
RightUpLeg 6.591590 -8.151676 -0.733605
RightLeg -1.374092 -0.000000 0.000000
RightFoot -21.279624 -22.383893 15.989569
RightToeBase 24.848474 -0.000000 -0.000000
